<svg xmlns="http://www.w3.org/2000/svg" fill="none" viewBox="0 0 24 24"><path fill="currentColor" d="M12.0002 2.30005C17.3573 2.30015 21.7004 6.64315 21.7004 12.0002C21.7003 17.3573 17.3573 21.7003 12.0002 21.7004C6.64315 21.7004 2.30015 17.3573 2.30005 12.0002C2.30005 6.64308 6.64308 2.30005 12.0002 2.30005ZM12.0002 10.3C11.6136 10.3 11.3 10.6136 11.3 11.0002V16.0002C11.3002 16.3867 11.6137 16.7004 12.0002 16.7004C12.3867 16.7003 12.7003 16.3867 12.7004 16.0002V11.0002C12.7004 10.6137 12.3867 10.3002 12.0002 10.3ZM12.0002 7.00024C11.448 7.00024 11.0002 7.44796 11.0002 8.00024C11.0004 8.55242 11.448 9.00024 12.0002 9.00024C12.5523 9.00011 13.0001 8.55234 13.0002 8.00024C13.0002 7.44804 12.5524 7.00038 12.0002 7.00024Z"/></svg>