<svg xmlns="http://www.w3.org/2000/svg" fill="none" viewBox="0 0 24 24"><path fill="currentColor" d="M12.0002 2.30005C17.3573 2.30015 21.7004 6.64315 21.7004 12.0002C21.7003 17.3573 17.3573 21.7003 12.0002 21.7004C6.64315 21.7004 2.30015 17.3573 2.30005 12.0002C2.30005 6.64308 6.64308 2.30005 12.0002 2.30005ZM12.0002 3.70044C7.41628 3.70044 3.70044 7.41628 3.70044 12.0002C3.70055 16.5841 7.41635 20.3 12.0002 20.3C16.5841 20.2999 20.2999 16.5841 20.3 12.0002C20.3 7.41635 16.5841 3.70055 12.0002 3.70044ZM12.0002 10.3C12.3868 10.3002 12.7004 10.672 12.7004 11.1301V15.8704C12.7004 16.3285 12.3868 16.7003 12.0002 16.7004C11.6136 16.7004 11.3 16.3286 11.3 15.8704V11.1301C11.3 10.6719 11.6136 10.3 12.0002 10.3ZM12.0002 7.00024C12.5524 7.00038 13.0002 7.44804 13.0002 8.00024C13.0001 8.55236 12.5524 9.00011 12.0002 9.00024C11.448 9.00024 11.0004 8.55244 11.0002 8.00024C11.0002 7.44796 11.448 7.00024 12.0002 7.00024Z"/></svg>