<svg xmlns="http://www.w3.org/2000/svg" fill="none" viewBox="0 0 24 24"><path fill="currentColor" fill-rule="evenodd" d="M18 5.30005C19.4912 5.30005 20.7002 6.50908 20.7002 8.00024V16.0002C20.7001 17.4913 19.4911 18.7004 18 18.7004H6C4.50892 18.7004 3.29991 17.4913 3.2998 16.0002V8.00024C3.2998 7.99053 3.30068 7.98064 3.30078 7.97095C3.30117 7.9615 3.30196 7.95208 3.30273 7.94263C3.33332 6.47801 4.52806 5.30007 6 5.30005H18ZM12.3135 12.6262C12.1164 12.7248 11.8836 12.7248 11.6865 12.6262L4.7002 9.13306V16.0002C4.7003 16.7181 5.28212 17.3 6 17.3H18C18.7179 17.3 19.2997 16.7181 19.2998 16.0002V9.13306L12.3135 12.6262ZM6 6.70044C5.42211 6.70046 4.93278 7.07733 4.76367 7.59888L12 11.217L19.2354 7.59888C19.0661 7.07748 18.5778 6.70044 18 6.70044H6Z" clip-rule="evenodd"/></svg>