<svg xmlns="http://www.w3.org/2000/svg" fill="none" viewBox="0 0 24 24"><path fill="currentColor" fill-rule="evenodd" d="M12.0002 3.30005C16.2527 3.30015 19.7004 6.74772 19.7004 11.0002C19.7004 12.3399 19.3573 13.6017 18.7542 14.7004C17.3037 17.6803 14.4646 20.3477 12.3577 21.6018C12.1371 21.7329 11.8623 21.733 11.6418 21.6018C9.53491 20.3477 6.69679 17.6802 5.24634 14.7004C4.64322 13.6017 4.30008 12.3399 4.30005 11.0002C4.30005 6.74765 7.74765 3.30005 12.0002 3.30005ZM12.0002 10.0002C11.448 10.0002 11.0002 10.448 11.0002 11.0002C11.0004 11.5524 11.448 12.0002 12.0002 12.0002C12.5523 12.0001 13.0001 11.5523 13.0002 11.0002C13.0002 10.448 12.5524 10.0004 12.0002 10.0002Z" clip-rule="evenodd"/></svg>