<svg xmlns="http://www.w3.org/2000/svg" fill="none" viewBox="0 0 24 24"><path fill="currentColor" fill-rule="evenodd" d="M6.70005 9.00005C6.70005 8.28208 7.28208 7.70005 8.00005 7.70005C8.71802 7.70005 9.30005 8.28208 9.30005 9.00005C9.30005 9.71802 8.71802 10.3 8.00005 10.3C7.28208 10.3 6.70005 9.71802 6.70005 9.00005ZM8.00005 6.30005C6.75098 6.30005 5.70001 7.14823 5.39167 8.30005H4.00005C3.61345 8.30005 3.30005 8.61345 3.30005 9.00005C3.30005 9.38665 3.61345 9.70005 4.00005 9.70005H5.39167C5.70001 10.8519 6.75098 11.7 8.00005 11.7C9.24912 11.7 10.3001 10.8519 10.6084 9.70005H20C20.3866 9.70005 20.7 9.38665 20.7 9.00005C20.7 8.61345 20.3866 8.30005 20 8.30005H10.6084C10.3001 7.14823 9.24912 6.30005 8.00005 6.30005ZM14.7 15C14.7 14.2821 15.2821 13.7 16 13.7C16.718 13.7 17.3 14.2821 17.3 15C17.3 15.718 16.718 16.3 16 16.3C15.2821 16.3 14.7 15.718 14.7 15ZM13.3917 15.7H4.00005C3.61345 15.7 3.30005 15.3866 3.30005 15C3.30005 14.6134 3.61345 14.3 4.00005 14.3H13.3917C13.7 13.1482 14.751 12.3 16 12.3C17.2491 12.3 18.3001 13.1482 18.6084 14.3H20C20.3866 14.3 20.7 14.6134 20.7 15C20.7 15.3866 20.3866 15.7 20 15.7H18.6084C18.3001 16.8519 17.2491 17.7 16 17.7C14.751 17.7 13.7 16.8519 13.3917 15.7Z" clip-rule="evenodd"/></svg>