<svg xmlns="http://www.w3.org/2000/svg" fill="none" viewBox="0 0 24 24"><path fill="currentColor" fill-rule="evenodd" d="M12.0002 2.30005C17.3573 2.30015 21.7004 6.64315 21.7004 12.0002C21.7003 17.3573 17.3573 21.7003 12.0002 21.7004C6.64315 21.7004 2.30015 17.3573 2.30005 12.0002C2.30005 6.64308 6.64308 2.30005 12.0002 2.30005ZM12.05 15.5168C11.8732 15.5169 11.7001 15.569 11.553 15.6672C11.4057 15.7656 11.2907 15.906 11.2229 16.0696C11.1552 16.2332 11.1376 16.4135 11.1721 16.5872C11.2067 16.7607 11.2921 16.92 11.4172 17.0452C11.5424 17.1703 11.7017 17.2557 11.8752 17.2903C12.0489 17.3248 12.2293 17.3072 12.3928 17.2395C12.5564 17.1717 12.6968 17.0567 12.7952 16.9094C12.8934 16.7623 12.9455 16.5893 12.9456 16.4124C12.9456 16.1749 12.8518 15.9465 12.6838 15.7786C12.5159 15.6107 12.2875 15.5168 12.05 15.5168ZM12.2698 7.00708C11.6885 6.9676 11.1066 7.08579 10.5891 7.34888C10.0716 7.61197 9.6373 8.01007 9.33423 8.49927C9.03117 8.98847 8.87145 9.55049 8.87134 10.1233C8.87131 10.4488 9.13957 10.7111 9.46899 10.7112C9.79837 10.7112 10.0666 10.4488 10.0667 10.1233C10.0668 9.76648 10.1668 9.41648 10.3557 9.11157C10.5446 8.80665 10.815 8.55798 11.1379 8.3938C11.4609 8.22964 11.824 8.15629 12.1868 8.18091C12.5496 8.20555 12.8987 8.32817 13.1956 8.53442C13.4923 8.74062 13.726 9.02244 13.8704 9.34985C14.0147 9.6774 14.0648 10.0384 14.0149 10.3918C13.9649 10.7451 13.8168 11.0782 13.5872 11.3547C13.3574 11.6314 13.0541 11.8411 12.7112 11.9602C12.3433 12.0881 12.0246 12.3247 11.7991 12.6379C11.5735 12.9514 11.4523 13.3271 11.4524 13.7112V14.0774C11.4524 14.4029 11.7207 14.6661 12.05 14.6663C12.3795 14.6663 12.6477 14.403 12.6477 14.0774V13.7102C12.6476 13.5698 12.6921 13.4325 12.7747 13.3176C12.8573 13.2028 12.9744 13.1156 13.1096 13.0686C13.6589 12.8778 14.1445 12.5425 14.5129 12.0989C14.8814 11.6552 15.1184 11.1203 15.1985 10.553C15.2786 9.98566 15.1987 9.40761 14.967 8.88208C14.7353 8.35654 14.3608 7.90405 13.885 7.57349C13.4094 7.24304 12.8508 7.04663 12.2698 7.00708Z" clip-rule="evenodd"/></svg>