<svg xmlns="http://www.w3.org/2000/svg" fill="none" viewBox="0 0 24 24"><path fill="currentColor" d="M12.05 15.517C12.288 15.517 12.516 15.611 12.684 15.779 12.852 15.947 12.946 16.175 12.946 16.412 12.946 16.589 12.893 16.762 12.795 16.909 12.697 17.057 12.556 17.172 12.393 17.24 12.229 17.307 12.049 17.325 11.875 17.29 11.702 17.256 11.542 17.17 11.417 17.045 11.292 16.92 11.207 16.761 11.172 16.587 11.138 16.414 11.155 16.233 11.223 16.07 11.291 15.906 11.406 15.766 11.553 15.667 11.7 15.569 11.873 15.517 12.05 15.517ZM12.27 7.007C12.851 7.047 13.409 7.243 13.885 7.573 14.361 7.904 14.735 8.357 14.967 8.882 15.199 9.408 15.279 9.986 15.199 10.553 15.118 11.12 14.881 11.655 14.513 12.099 14.144 12.543 13.659 12.879 13.11 13.07 12.975 13.117 12.857 13.203 12.775 13.318 12.692 13.432 12.648 13.57 12.648 13.71V14.077C12.648 14.403 12.38 14.666 12.05 14.666 11.721 14.666 11.452 14.403 11.452 14.077V13.711C11.452 13.327 11.574 12.951 11.799 12.638 12.025 12.325 12.343 12.088 12.711 11.96 13.054 11.841 13.357 11.631 13.587 11.355 13.817 11.078 13.965 10.745 14.015 10.392 14.065 10.038 14.015 9.677 13.87 9.35 13.726 9.022 13.492 8.741 13.196 8.534 12.899 8.328 12.55 8.206 12.187 8.181 11.824 8.156 11.461 8.231 11.138 8.395 10.815 8.559 10.545 8.807 10.356 9.112 10.167 9.416 10.067 9.767 10.067 10.123 10.067 10.449 9.798 10.711 9.469 10.711 9.14 10.711 8.871 10.449 8.871 10.123 8.871 9.55 9.031 8.988 9.334 8.499 9.637 8.01 10.072 7.612 10.589 7.349 11.107 7.086 11.689 6.968 12.27 7.007Z"/><path fill="currentColor" fill-rule="evenodd" d="M12.0002 2.30005C17.3573 2.30015 21.7004 6.64315 21.7004 12.0002C21.7003 17.3573 17.3573 21.7003 12.0002 21.7004C6.64315 21.7004 2.30015 17.3573 2.30005 12.0002C2.30005 6.64308 6.64308 2.30005 12.0002 2.30005ZM12.0002 3.70044C7.41628 3.70044 3.70044 7.41628 3.70044 12.0002C3.70055 16.5841 7.41635 20.3 12.0002 20.3C16.5841 20.2999 20.2999 16.5841 20.3 12.0002C20.3 7.41635 16.5841 3.70055 12.0002 3.70044Z" clip-rule="evenodd"/></svg>