<svg xmlns="http://www.w3.org/2000/svg" fill="none" viewBox="0 0 24 24"><path fill="currentColor" fill-rule="evenodd" d="M3.30005 7.00005C3.30005 5.50888 4.50888 4.30005 6.00005 4.30005H18C19.4912 4.30005 20.7001 5.50888 20.7001 7.00005V15C20.7001 16.4912 19.4912 17.7 18 17.7H15.2449L13.2164 20.5108L13.1947 20.5409C13.066 20.7193 12.9284 20.9102 12.7923 21.0503C12.637 21.2103 12.3784 21.4165 12 21.4165C11.6217 21.4165 11.3631 21.2103 11.2078 21.0503C11.0717 20.9102 10.9341 20.7193 10.8055 20.5409L10.8054 20.5409L10.8054 20.5409L10.7837 20.5108L8.75522 17.7H6.00005C4.50888 17.7 3.30005 16.4912 3.30005 15V7.00005ZM8 12C8.55228 12 9 11.5523 9 11C9 10.4478 8.55228 10 8 10C7.44772 10 7 10.4478 7 11C7 11.5523 7.44772 12 8 12ZM12 12C12.5523 12 13 11.5523 13 11C13 10.4478 12.5523 10 12 10C11.4477 10 11 10.4478 11 11C11 11.5523 11.4477 12 12 12ZM17 11C17 11.5523 16.5523 12 16 12C15.4477 12 15 11.5523 15 11C15 10.4478 15.4477 10 16 10C16.5523 10 17 10.4478 17 11Z" clip-rule="evenodd"/></svg>