<svg xmlns="http://www.w3.org/2000/svg" fill="none" viewBox="0 0 24 24"><path fill="currentColor" fill-rule="evenodd" d="M5.99999 5.70005C5.28202 5.70005 4.69999 6.28208 4.69999 7.00005V15C4.69999 15.718 5.28202 16.3 5.99999 16.3H9.11324C9.3381 16.3 9.54927 16.4081 9.68086 16.5904L11.9189 19.6915C11.9483 19.7322 11.9751 19.7694 12 19.8036C12.0249 19.7694 12.0517 19.7322 12.0811 19.6915L14.3191 16.5904C14.4507 16.4081 14.6619 16.3 14.8867 16.3H18C18.718 16.3 19.3 15.718 19.3 15V7.00005C19.3 6.28208 18.718 5.70005 18 5.70005H5.99999ZM11.7762 20.0864L11.777 20.0856L11.7762 20.0864ZM12.223 20.0857L12.2238 20.0864L12.223 20.0857ZM3.29999 7.00005C3.29999 5.50888 4.50882 4.30005 5.99999 4.30005H18C19.4912 4.30005 20.7 5.50888 20.7 7.00005V15C20.7 16.4912 19.4912 17.7 18 17.7H15.2448L13.2163 20.5108C13.2091 20.5208 13.2019 20.5308 13.1946 20.5409C13.066 20.7193 12.9283 20.9102 12.7922 21.0503C12.6369 21.2103 12.3783 21.4165 12 21.4165C11.6217 21.4165 11.363 21.2103 11.2077 21.0503C11.0716 20.9102 10.934 20.7193 10.8054 20.5409C10.7981 20.5308 10.7909 20.5208 10.7837 20.5108L8.75516 17.7H5.99999C4.50882 17.7 3.29999 16.4912 3.29999 15V7.00005Z" clip-rule="evenodd"/><path fill="currentColor" fill-rule="evenodd" d="M8.99999 11C8.99999 11.5523 8.55227 12 7.99999 12C7.4477 12 6.99999 11.5523 6.99999 11C6.99999 10.4478 7.4477 10 7.99999 10C8.55227 10 8.99999 10.4478 8.99999 11ZM13 11C13 11.5523 12.5523 12 12 12C11.4477 12 11 11.5523 11 11C11 10.4478 11.4477 10 12 10C12.5523 10 13 10.4478 13 11ZM16 12C16.5523 12 17 11.5523 17 11C17 10.4478 16.5523 10 16 10C15.4477 10 15 10.4478 15 11C15 11.5523 15.4477 12 16 12Z" clip-rule="evenodd"/></svg>