<svg xmlns="http://www.w3.org/2000/svg" fill="none" viewBox="0 0 24 24"><path fill="currentColor" fill-rule="evenodd" d="M12 3C16.9706 3 21 7.02944 21 12C21 16.9706 16.9706 21 12 21C7.02944 21 3 16.9706 3 12C3 7.02944 7.02944 3 12 3ZM12 4.44824C7.8293 4.44824 4.44824 7.8293 4.44824 12C4.44824 14.1596 5.35625 16.106 6.80957 17.4824C6.82022 17.4611 6.83003 17.4392 6.8418 17.418C7.44731 16.3274 8.39031 15.4495 9.5293 14.9229C8.6998 14.2208 8.17298 13.1718 8.17285 12C8.17309 9.88636 9.88633 8.17298 12 8.17285C14.1138 8.17285 15.8279 9.88628 15.8281 12C15.828 13.1721 15.2996 14.2208 14.4697 14.9229C15.609 15.4494 16.5526 16.3272 17.1582 17.418C17.1699 17.4391 17.1789 17.4613 17.1895 17.4824C18.6431 16.106 19.5518 14.1599 19.5518 12C19.5518 7.8293 16.1707 4.44824 12 4.44824Z" clip-rule="evenodd"/></svg>