<svg xmlns="http://www.w3.org/2000/svg" fill="none" viewBox="0 0 24 24"><path fill="currentColor" fill-rule="evenodd" d="M13.1649 2.77935C12.6881 1.81313 11.3103 1.81313 10.8334 2.77935L8.5954 7.31407L3.59105 8.04124C2.52476 8.19618 2.099 9.50655 2.87057 10.2586L6.49175 13.7884L5.63691 18.7726C5.45476 19.8345 6.56943 20.6444 7.52314 20.143L11.9992 17.7898L16.4752 20.143C17.4289 20.6444 18.5436 19.8345 18.3614 18.7726L17.5066 13.7884L21.1278 10.2586C21.8993 9.50655 21.4736 8.19618 20.4073 8.04124L15.4029 7.31407L13.1649 2.77935Z" clip-rule="evenodd"/><path fill="currentColor" fill-rule="evenodd" d="M12 2.05469C11.5361 2.0544 11.072 2.29595 10.8334 2.77935L8.5954 7.31407L3.59105 8.04124C2.52476 8.19618 2.099 9.50655 2.87057 10.2586L6.49175 13.7884L5.63691 18.7726C5.45476 19.8345 6.56943 20.6444 7.52314 20.143L11.9992 17.7898L12 2.05469Z" clip-rule="evenodd"/></svg>