<svg xmlns="http://www.w3.org/2000/svg" fill="none" viewBox="0 0 24 24"><path fill="currentColor" d="M10.137 4.01496C11.18 3.02073 12.8196 3.02074 13.8625 4.01496L19.8625 9.73371C20.3971 10.2433 20.7004 10.9503 20.7004 11.6888V18.9993C20.7004 20.4904 19.4913 21.6994 18.0002 21.6995H15.0002C14.0614 21.6995 13.3 20.9382 13.3 19.9993V15.389C13.3 15.2234 13.1658 15.0893 13.0002 15.0892H11.0002C10.8346 15.0892 10.7004 15.2233 10.7004 15.389V19.9993C10.7004 20.9382 9.93904 21.6994 9.00024 21.6995H6.00024C4.50908 21.6995 3.30005 20.4905 3.30005 18.9993V11.6888C3.30005 10.9503 3.60242 10.2433 4.13696 9.73371L10.137 4.01496Z"/></svg>