<svg xmlns="http://www.w3.org/2000/svg" fill="none" viewBox="0 0 24 24"><path fill="currentColor" d="M16.629 11.429C16.863 11.663 16.864 12.043 16.63 12.277L10.012 18.895C9.899 19.008 9.746 19.071 9.587 19.071L6.105 19.071C5.773 19.071 5.505 18.802 5.505 18.471V14.989C5.505 14.83 5.568 14.677 5.681 14.564L12.299 7.946C12.533 7.712 12.913 7.712 13.147 7.946L16.629 11.429ZM19.805 8.253C20.039 8.487 20.04 8.867 19.806 9.101L18.489 10.418C18.255 10.653 17.874 10.653 17.639 10.418L14.157 6.936C13.923 6.702 13.924 6.322 14.158 6.087L15.475 4.77C15.709 4.536 16.088 4.536 16.323 4.77L19.805 8.253Z"/></svg>