<svg xmlns="http://www.w3.org/2000/svg" fill="none" viewBox="0 0 24 24"><path fill="currentColor" fill-rule="evenodd" d="M19.9613 7.97488C20.5077 8.52164 20.5072 9.408 19.9606 9.95464L11.1494 18.7659C10.8894 19.0258 10.5377 19.1732 10.1702 19.176L6.60703 19.2037C6.23228 19.2064 5.8722 19.0584 5.60713 18.7935C5.34201 18.5284 5.19346 18.1678 5.19627 17.7929L5.22389 14.2297C5.22676 13.8622 5.37419 13.5104 5.63407 13.2506L14.4453 4.43935C14.992 3.89261 15.879 3.89261 16.4257 4.43935L19.9613 7.97488ZM12.6071 8.258L6.62429 14.2408L6.59667 17.8039L10.1598 17.7763L16.1426 11.7935L12.6071 8.258ZM13.5973 7.26777L17.1328 10.8033L18.971 8.96511L15.4355 5.42957L13.5973 7.26777Z" clip-rule="evenodd"/></svg>